<?xml version="1.0" encoding="utf-8"?>
<!-- Generator: Adobe Illustrator 21.1.0, SVG Export Plug-In . SVG Version: 6.00 Build 0)  -->
<svg version="1.1" xmlns="http://www.w3.org/2000/svg" xmlns:xlink="http://www.w3.org/1999/xlink" x="0px" y="0px"
	 viewBox="0 0 1200 900" style="enable-background:new 0 0 1200 900;" xml:space="preserve">
<style type="text/css">
	.st0{fill:#094154;}
	.st1{fill:#77CCED;}
	.st2{fill:#14723A;}
	.st3{fill:#EA7878;}
	.st4{fill:#51041A;}
	.st5{fill:#000230;}
	.st6{fill:#1E697A;}
	.st7{fill:#7FD2EF;}
	.st8{fill:#FFFFFF;}
	.st9{fill:#D55B73;}
</style>
<g id="Plan_3">
	<g id="anneaux_planete_2nd_plan">
		<g>
			<path class="st0" d="M786.7,692.7c11.5,1.8,46.9,10.5,71.8,17.8c4.8-7.2,9.3-14,9.3-14c-52.7-14.1-125.9-27.4-125.9-25.6
				S786.7,692.7,786.7,692.7z"/>
			<path class="st0" d="M1111.3,854.1c0,0,40.1,27.4,43.6,19.4c3.6-8-36.7-46.2-92.6-87.8l-14.8,7.7
				C1115,839.5,1129.3,856.2,1111.3,854.1z"/>
		</g>
	</g>
	<g id="Corps_planete">
		
			<ellipse transform="matrix(0.9372 -0.3488 0.3488 0.9372 -199.9797 380.581)" class="st1" cx="957" cy="745.7" rx="123" ry="123"/>
		<path class="st2" d="M973.3,803c8.6-26.7-9-39.3-30.8-71.1c-21.9-31.7,10.2-13,2.9-51.6c-7.2-38.6-39.5-46.6-39.5-46.6
			c-55,25-83.6,86.6-67.5,144.6c1.6-1,7.4-4.3,12.2-3c5.5,1.5,22.7-26.9,37,32.5s36.6,21.9,44.4,27.6
			C939.8,841.1,964.7,829.7,973.3,803z"/>
		<path class="st2" d="M1036.5,839.5c33.1-28.1,49.5-72.3,41.5-116c-0.1,0-46.7-7-45.2,20.1c1.6,27.2,10.8,33.3-2.9,43.8
			c-13.7,10.4-10.7,11.4-4.1,29.3C1032.5,834.5,1036.5,839.5,1036.5,839.5z"/>
	</g>
	<g id="Trace_Fusee_1">
		<polygon class="st3" points="1067,410.8 504,973.9 541.3,955.7 1074.3,417.5 1078,408.4 		"/>
	</g>
	<g id="anneaux_planete_1er_plan">
		<path class="st0" d="M1111.3,854.1c-65.6-8-421.4-177.1-326.6-162.3c0,0-43.4-20.9-42.8-20.9c-135.6-8.1,405.3,248.9,413,202.5
			C1154.9,873.8,1111.3,854.1,1111.3,854.1z"/>
	</g>
	<g id="Fusee_1">
		<path class="st4" d="M1097.6,396.9c-1,2.4-2.3,4.5-3.9,6.6c-1,1.3-2.1,2.4-3.1,3.6c-0.5,0.5-1,1.1-1.5,1.6
			c-1.2,1.2-2.5,2.4-3.7,3.5c-0.6,0.5-1.1,1.1-1.7,1.6c-0.4,0.4-0.5,0.7-0.3,1.2c0.6,1.4,1,2.9,1.1,4.4c0.2,2.4-0.3,4.6-1.2,6.8
			c-0.8,2-2,3.7-3.5,5.2c-1.1,1.1-2.3,2.2-3.5,3.3c-0.3,0.3-0.8,0.5-1.2,0.8c-0.2-0.2-0.3-0.4-0.5-0.6c-0.6-0.8-0.6-1-0.1-1.9
			c1-1.5,1.6-3.2,1.9-5c0.1-0.9,0.2-1.7,0.2-2.6c-0.1-2-0.6-3.9-1.9-5.5c-0.2-0.1-0.3-0.4-0.5-0.4c-3.2-1.4-5.7-3.7-7.7-6.6
			c-0.5-0.7-1-1.3-1.5-1.9c-0.1-0.1-0.3-0.1-0.4-0.2c-0.2-0.1-0.5-0.3-0.7-0.4c-1.2-0.5-2.4-0.7-3.6-0.9c-1.2-0.2-2.4-0.1-3.5,0.1
			c-1.5,0.3-2.8,0.9-4,1.8c-0.4,0.3-0.9,0.6-1.3,1c-0.7,0.6-1.4,0.3-2-0.4c-0.2-0.3-0.3-0.5-0.1-0.8c0.9-1.2,1.6-2.5,2.6-3.7
			c0.9-1.1,1.9-2.1,2.9-3c1.2-1,2.5-1.8,4-2.4c1.6-0.7,3.3-1.1,5-1.2c1.7-0.1,3.3,0.3,4.8,0.8c0.5,0.2,0.8,0,1.1-0.4
			c0.6-0.9,1.1-1.9,1.8-2.8c1.4-1.9,2.7-3.8,4.3-5.5c1.6-1.7,3.2-3.4,5.1-4.7c1.6-1.2,3.2-2.2,4.9-3.2c0.5-0.2,0.9-0.5,1.4-0.7
			c0.8-0.3,1.6-0.7,2.4-1c1.5-0.5,3.1-1,4.7-1.3c1.7-0.3,3.4-0.7,5.1-0.6c0.5,0,0.7,0.2,0.7,0.7c0,1.4,0,2.8,0,4.1
			c0,0.9-0.2,1.9-0.3,2.8c-0.1,0.9-0.3,1.9-0.4,2.8c-0.2,1.4-0.7,2.8-1.2,4.1C1097.9,396.2,1097.7,396.6,1097.6,396.9z"/>
	</g>
</g>
<g id="Plan_2">
	<g id="Centre_trou_noir">
		
			<ellipse transform="matrix(0.9854 -0.1704 0.1704 0.9854 -75.9781 47.2463)" class="st5" cx="237.2" cy="466.2" rx="61.5" ry="61.5"/>
	</g>
	<g id="trou_noir">
		<path class="st5" d="M145.1,482.2c-9.4-23-6.2-78.8,62.9-105.8c-1.4,0.1-18.4-3-52.4,31.9c-0.1-0.1-0.2-0.1-0.3-0.2
			c3.1-3.7,6.2-7.6,9.5-11.1c9.6-10.4,20.7-18.6,34-23.7c8.7-3.3,17.6-5.2,27-4.9c0.2,0,0.4,0,0.6,0c-1.9-1.4-6-2-11.3-1.6
			c-3.8,0.3-7.6,0.9-11.5,1.1c1-0.5,1.9-1.2,3-1.4c3-0.6,6-1.3,9-1.6c4.9-0.4,9.8-0.4,14.6-0.6c0.5,0,28.7-1.1,56.5,13.2
			c19.4,10.9,31,22.8,39.8,43.1c5.6,13,10.1,31.8,7.8,50c-1.1,19.1-12.8,41.1-21.7,45.8c21.3-45.7-2.3-38.1-2.3-38.1
			c1-2.5,2.3-5.2,3.1-8.1c2.4-8.2,1.5-16.3-0.6-24.4c-3-11.7-8.6-22.2-15.3-32.1c-0.2-0.4-0.5-0.7-0.8-1.1c1.9,0.5,7.2-1.5-3.1-9.5
			c-5.9-4.5-11.7-8.9-18.2-12.4c-14-7.5-28.8-5.6-22.4-0.1c-0.4-0.1-0.9-0.1-1.3-0.2c-15.9-3.1-31.5-2.2-46.5,4.5
			c-12.1,5.4-22.1,13.6-29.9,24.3c-12.6,17.4-18.8,36.8-16.3,58.5c1.9,17,9.9,30.8,22.7,41.9c6.3,5.4,13.1,10.1,20.5,14
			c0.4,0.2,0.7,0.5,1,0.9c-7.5-2.7-4.5,3.7,5.7,7.2c10.2,3.5,20.6,5.4,31.4,5.8c-6.8,1.5-8.3,4.7-4.2,4.7c4.2,0,8.3-0.3,12.5-0.9
			c4.1-0.6,8.2-1.4,12.2-2.5s-4.3,4.9,2,3.3c6.2-1.6,12.2-3.9,17.9-6.7c-6,4.9-8.3,7.8-17.5,12.3c-5.7,1.7-41,16.4-84.3-11.2
			c-9-6.6-17.2-14.1-23.9-23c-15.4-20.6-23.2-43.6-22.4-69.3c0.4-13.3,4.6-25.6,11.4-36.9c0.1-0.1,0.2-0.2,0.5-0.3
			C141.1,424.1,134.8,469.3,145.1,482.2z"/>
		<path class="st5" d="M190.6,517.3c-22.8-15.9-29.5-44-20.4-68C165.4,475.4,172.1,498,190.6,517.3z"/>
		<path class="st5" d="M237.4,395.8c27.3-4.8,52,10.3,62.5,33.7C284.8,407.5,264.1,396.3,237.4,395.8z"/>
		<path class="st5" d="M303.4,490.4c-5.8,27.2-29.1,44.3-54.8,45.2C274.7,529.9,292.9,515,303.4,490.4z"/>
	</g>
	<g id="Trace_fusee_2">
		<path class="st6" d="M509.9,309.7C346.8,744.2-196,876.5-196,876.5l49.5,111.1c0,0,587.4-322.2,676.1-675.6
			C509.9,309.7,509.9,309.7,509.9,309.7z"/>
	</g>
	<g id="Fusee_2">
		<path class="st7" d="M545.5,264.5c0.6,5,0.4,10-0.3,15c-0.4,3.1-1.2,6.1-1.8,9.2c-0.3,1.4-0.6,2.8-1,4.1c-1,3.3-2,6.5-3,9.7
			c-0.5,1.5-0.9,2.9-1.4,4.4c-0.3,1.2-0.2,1.6,0.8,2.4c2.4,1.8,4.5,3.9,6.3,6.4c2.7,3.8,4,8.1,4.5,12.7c0.4,4.2,0.1,8.3-1,12.3
			c-0.8,3-1.8,6.1-2.8,9.1c-0.3,0.9-0.8,1.6-1.4,2.6c-0.5-0.2-0.9-0.3-1.4-0.5c-1.9-0.7-2.1-1.1-2-3.1c0.3-3.6-0.3-7-1.7-10.3
			c-0.6-1.6-1.3-3.2-2.2-4.6c-2.1-3.3-4.8-6-8.7-7.4c-0.4-0.1-0.8-0.3-1.2-0.3c-7,0.9-13.5-0.5-19.8-3.4c-1.5-0.7-3-1.2-4.5-1.8
			c-0.2-0.1-0.6,0-0.9,0.1c-0.6,0-1.1,0-1.7,0.1c-2.5,0.4-4.8,1.2-7.1,2.2c-2.2,0.9-4.2,2.1-6,3.7c-2.2,2-3.9,4.4-5.2,7
			c-0.5,1-0.9,2-1.2,3c-0.6,1.6-2.1,1.9-3.8,1.3c-0.6-0.2-1-0.5-1-1.4c0.3-2.9,0.3-5.9,0.8-8.8c0.4-2.7,1.2-5.4,2.1-8
			c1-2.9,2.6-5.6,4.5-8.1c2.1-2.7,4.6-5.2,7.5-7c2.8-1.8,5.9-2.8,9.1-3.6c1-0.2,1.4-0.7,1.4-1.7c0.1-2.2,0.1-4.3,0.4-6.5
			c0.6-4.6,1-9.1,2.1-13.6c1.1-4.5,2.3-8.9,4.1-13.1c1.6-3.5,3.5-6.9,5.2-10.3c0.6-0.8,1.1-1.7,1.7-2.5c1-1.4,2-2.8,3.2-4
			c2.2-2.4,4.3-4.8,6.8-6.9c2.6-2.2,5.1-4.6,8.2-6.1c0.9-0.4,1.3-0.4,1.8,0.5c1.4,2.3,2.8,4.6,4,7c0.8,1.6,1.4,3.4,2.1,5.1
			c0.7,1.7,1.4,3.4,2.1,5.1c1.1,2.6,1.5,5.4,2,8.2C545.2,263.1,545.4,263.8,545.5,264.5z"/>
	</g>
</g>
<g id="Plan_1">
	<g id="Trace_fusee_3">
		<polygon class="st8" points="981.5,134.8 87.1,1029.1 133.8,1055.7 1015.1,165.8 1023.3,125.5 		"/>
	</g>
	<g id="Fusee_3">
		<path class="st9" d="M1100.2,83.7c-3.7,8.6-8.5,16.5-14.2,23.8c-3.5,4.6-7.5,8.8-11.3,13.1c-1.7,2-3.5,3.9-5.4,5.7
			c-4.5,4.3-9,8.6-13.6,12.9c-2.1,2-4.1,3.9-6.2,5.8c-1.6,1.6-1.8,2.5-0.9,4.5c2.2,5.2,3.5,10.5,4,16.1c0.8,8.7-1.1,16.7-4.5,24.6
			c-3.1,7.1-7.4,13.4-12.9,18.9c-4.1,4.1-8.4,8.1-12.7,12c-1.2,1.1-2.8,1.8-4.5,2.9c-0.6-0.7-1.2-1.4-1.8-2.1
			c-2.3-2.8-2.3-3.8-0.3-6.9c3.7-5.5,5.9-11.6,6.8-18.1c0.4-3.1,0.8-6.3,0.6-9.4c-0.4-7.3-2.1-14.2-6.8-20.1c-0.6-0.5-1-1.3-1.7-1.6
			c-11.8-5.1-20.8-13.5-28.1-24c-1.7-2.4-3.6-4.8-5.5-7.1c-0.3-0.4-0.9-0.5-1.4-0.7c-0.9-0.5-1.7-1-2.7-1.4
			c-4.2-1.7-8.7-2.6-13.2-3.2c-4.4-0.6-8.6-0.5-12.9,0.4c-5.3,1.1-10.1,3.4-14.5,6.5c-1.6,1.1-3.2,2.3-4.7,3.6
			c-2.4,2.1-5.1,1.1-7.2-1.5c-0.8-1-1.2-1.8-0.3-3.1c3.2-4.4,5.9-9.2,9.3-13.4c3.2-3.9,6.8-7.6,10.6-11c4.3-3.8,9.2-6.7,14.5-8.9
			c5.9-2.4,11.9-4,18.3-4.3c6-0.3,11.9,1,17.6,2.7c1.8,0.6,2.9,0.1,3.8-1.4c2.1-3.4,4.2-6.8,6.5-10c5.1-6.8,9.9-13.8,15.8-20
			c5.8-6.2,11.7-12.2,18.5-17.2c5.7-4.2,11.8-7.8,17.7-11.7c1.6-0.8,3.3-1.7,4.9-2.5c2.9-1.2,5.7-2.6,8.7-3.5
			c5.6-1.8,11.2-3.7,17-4.8c6.1-1.2,12.2-2.6,18.5-2.2c1.8,0.1,2.4,0.6,2.4,2.5c0,5,0.2,10-0.1,15c-0.1,3.4-0.8,6.8-1.3,10.2
			c-0.5,3.4-1,6.8-1.4,10.1c-0.6,5.3-2.6,10.1-4.4,15.1C1101.2,81.1,1100.7,82.4,1100.2,83.7z"/>
	</g>
</g>
</svg>
