<?xml version="1.0" encoding="utf-8"?>
<!-- Generator: Adobe Illustrator 21.1.0, SVG Export Plug-In . SVG Version: 6.00 Build 0)  -->
<svg version="1.1" id="Calque_1" xmlns="http://www.w3.org/2000/svg" xmlns:xlink="http://www.w3.org/1999/xlink" x="0px" y="0px"
	 viewBox="0 0 1200 900" style="enable-background:new 0 0 1200 900;" xml:space="preserve">
<style type="text/css">
	.st0{fill:#601106;}
	.st1{fill:#77281B;}
	.st2{fill:#C44726;}
	.st3{fill:#DD851B;}
	.st4{fill:#DD8936;}
	.st5{fill:#138AAA;}
	.st6{fill:#77CCED;}
	.st7{fill:#14723A;}
	.st8{fill:#B73434;}
	.st9{fill:#51041A;}
	.st10{fill:#1E697A;}
	.st11{fill:#7FD2EF;}
	.st12{fill:#FFFFFF;}
	.st13{fill:#D55B73;}
</style>
<g id="Plan_5">
	<g id="Corps_planete_2_">
		
			<ellipse transform="matrix(0.9372 -0.3488 0.3488 0.9372 -32.4367 77.6191)" class="st0" cx="199.3" cy="128.9" rx="142.6" ry="142.6"/>
		<path class="st1" d="M298.7,80.1c-7.4-31.5-90.8-7.2-99.4-18c-15.5-19.5-23.3-43.6-42.7-42c-55.1,4.5-83.7,87.7-99.6,99.6
			c-1.3,19.4,1.5,39.4,8.7,58.9c27.5,73.8,109.6,111.4,183.4,83.9c2.1-0.8,4.2-1.6,6.3-2.5c-89.1-23.5-76.9-39.2-56-65.9
			c21.7-27.7,60.9,8.4,80.3-34.5C298.7,117.5,308.1,120.4,298.7,80.1z"/>
	</g>
</g>
<g id="Plan_4">
	<g id="Corps_planete_1_">
		
			<ellipse transform="matrix(0.9372 -0.3488 0.3488 0.9372 -54.3216 139.8226)" class="st2" cx="361.1" cy="220.8" rx="78.6" ry="78.6"/>
		<path class="st3" d="M381.3,197c19.9-6,13-16.1,16.2-23c3.6-7.7,6.2-13.7,7.9-18.2c-3.9-2.7-8.1-5-12.4-6.9
			c-7.6,3.7-17.4,8.1-28.1,9c-30.4,2.5-36.1-8-36.4-8.7c-13,5.9-23.7,15-31.5,26.1c1-0.6,73.7,0.2,46.8,18.7c-8.4,5-24-4.9-31.1,3
			c-4.6,5.1-21.3,12.1-30,18.7c-0.7,10.7,0.8,21.7,4.8,32.5c15.1,40.7,60.4,61.4,101.1,46.2c1.2-0.4,2.3-0.9,3.5-1.4
			c2.5-14.7-0.4-31.6-20.5-35.6c-19-3.8,5.7-15.8-33.9-15.9C313,241.4,359.5,203.8,381.3,197z"/>
		<path class="st4" d="M434.8,193.3c-3.1-8.4-7.6-16-13-22.6c-4.8,3.7-9.4,9.5-9,18.2c1,17.4-24.9,29.5-33.7,36.2
			c-8.8,6.6,21.7,29.6,25.9,41c1.8,4.8,7.7,7,13.9,7.9C438.3,253,445.4,222,434.8,193.3z"/>
	</g>
</g>
<g id="Plan_3.5">
</g>
<g id="Plan_3">
	<g id="anneaux_planete_2nd_plan">
		<g>
			<path class="st5" d="M844.5,698.7c11.5,1.8,46.9,10.5,71.8,17.8c4.8-7.2,9.3-14,9.3-14c-52.7-14.1-125.9-27.4-125.9-25.6
				S844.5,698.7,844.5,698.7z"/>
			<path class="st5" d="M1169.1,860.1c0,0,40.1,27.4,43.6,19.4c3.6-8-36.7-46.2-92.6-87.8l-14.8,7.7
				C1172.8,845.5,1187.1,862.2,1169.1,860.1z"/>
		</g>
	</g>
	<g id="Corps_planete">
		
			<ellipse transform="matrix(0.9372 -0.3488 0.3488 0.9372 -198.4317 401.1666)" class="st6" cx="1014.8" cy="751.6" rx="123" ry="123"/>
		<path class="st7" d="M1031.1,809c8.6-26.7-9-39.3-30.8-71.1c-21.9-31.7,10.2-13,2.9-51.6c-7.2-38.6-39.5-46.6-39.5-46.6
			c-55,25-83.6,86.6-67.5,144.6c1.6-1,7.4-4.3,12.2-3c5.5,1.5,22.7-26.9,37,32.5s36.6,21.9,44.4,27.6
			C997.6,847.1,1022.5,835.7,1031.1,809z"/>
		<path class="st7" d="M1094.3,845.5c33.1-28.1,49.5-72.3,41.5-116c-0.1,0-46.7-7-45.2,20.1c1.6,27.2,10.8,33.3-2.9,43.8
			c-13.7,10.4-10.7,11.4-4.1,29.3C1090.3,840.5,1094.3,845.5,1094.3,845.5z"/>
	</g>
	<g>
		<path class="st8" d="M667.7,951h68c8.7-123.1,257.6-397.8,366.8-490.7l-4.9-7.5C986.8,543,750,816.2,667.7,951z"/>
	</g>
	<g id="anneaux_planete_1er_plan">
		<path class="st5" d="M1169.1,860.1c-65.6-8-421.4-177.1-326.6-162.3c0,0-43.4-20.9-42.8-20.9c-135.6-8.1,405.3,248.9,413,202.5
			C1212.7,879.8,1169.1,860.1,1169.1,860.1z"/>
	</g>
	<g id="Fusee_1">
		<path class="st9" d="M1124.8,448.2c-1.4,2.2-3,4.1-4.9,5.9c-1.2,1.1-2.5,2-3.7,3c-0.6,0.4-1.2,0.9-1.7,1.3c-1.4,1-2.9,2-4.2,2.8
			c-0.7,0.4-1.3,0.9-1.9,1.3c-0.5,0.3-0.6,0.6-0.5,1.1c0.4,1.5,0.5,3,0.4,4.5c-0.2,2.4-1.1,4.5-2.3,6.5c-1.1,1.8-2.6,3.3-4.3,4.5
			c-1.3,0.9-2.6,1.8-4,2.7c-0.3,0.2-0.9,0.4-1.3,0.6c-0.2-0.2-0.2-0.4-0.4-0.7c-0.5-0.9-0.4-1.1,0.2-1.9c1.2-1.3,2.1-2.9,2.7-4.6
			c0.2-0.9,0.5-1.6,0.6-2.5c0.2-2,0.1-3.9-1-5.7c-0.2-0.1-0.2-0.4-0.4-0.5c-2.9-1.9-5-4.6-6.5-7.8c-0.4-0.8-0.8-1.4-1.2-2.1
			c-0.1-0.1-0.3-0.1-0.4-0.3c-0.2-0.1-0.4-0.4-0.6-0.5c-1.1-0.7-2.3-1.1-3.4-1.5c-1.1-0.4-2.3-0.5-3.5-0.5c-1.5,0-2.9,0.4-4.2,1.1
			c-0.4,0.2-1,0.4-1.4,0.8c-0.8,0.5-1.4,0.1-1.9-0.7c-0.1-0.3-0.2-0.5,0-0.8c1.1-1,2-2.2,3.2-3.2c1.1-0.9,2.2-1.8,3.4-2.5
			c1.3-0.8,2.8-1.4,4.3-1.7c1.7-0.4,3.4-0.5,5.1-0.4s3.2,0.8,4.6,1.6c0.5,0.3,0.8,0.1,1.2-0.2c0.7-0.8,1.4-1.7,2.2-2.5
			c1.7-1.6,3.3-3.3,5.2-4.7c1.9-1.4,3.7-2.8,5.8-3.8c1.8-0.9,3.5-1.6,5.4-2.3c0.5-0.1,1-0.3,1.5-0.5c0.8-0.2,1.7-0.4,2.5-0.6
			c1.6-0.2,3.2-0.5,4.9-0.5c1.7,0,3.5-0.1,5.1,0.3c0.5,0.1,0.7,0.3,0.6,0.8c-0.2,1.4-0.5,2.8-0.7,4c-0.1,0.9-0.5,1.8-0.8,2.7
			c-0.2,0.9-0.6,1.8-0.9,2.7c-0.4,1.3-1.2,2.6-1.9,3.8C1125.2,447.5,1125,447.9,1124.8,448.2z"/>
	</g>
</g>
<g id="Plan_2.5">
	<g id="Centre_trou_noir">
		<ellipse transform="matrix(0.9854 -0.1704 0.1704 0.9854 -83.7151 52.5949)" cx="264.5" cy="514" rx="44" ry="44"/>
	</g>
</g>
<g id="Plan_2">
	<g id="Trace_fusee_2">
		<path class="st10" d="M509.9,309.7C361.1,751.6-339.9,992-339.9,992v153c0,0,780.8-479.7,869.5-833.1
			C509.9,309.7,509.9,309.7,509.9,309.7z"/>
	</g>
	<g id="Fusee_2">
		<path class="st11" d="M545.5,264.5c0.6,5,0.4,10-0.3,15c-0.4,3.1-1.2,6.1-1.8,9.2c-0.3,1.4-0.6,2.8-1,4.1c-1,3.3-2,6.5-3,9.7
			c-0.5,1.5-0.9,2.9-1.4,4.4c-0.3,1.2-0.2,1.6,0.8,2.4c2.4,1.8,4.5,3.9,6.3,6.4c2.7,3.8,4,8.1,4.5,12.7c0.4,4.2,0.1,8.3-1,12.3
			c-0.8,3-1.8,6.1-2.8,9.1c-0.3,0.9-0.8,1.6-1.4,2.6c-0.5-0.2-0.9-0.3-1.4-0.5c-1.9-0.7-2.1-1.1-2-3.1c0.3-3.6-0.3-7-1.7-10.3
			c-0.6-1.6-1.3-3.2-2.2-4.6c-2.1-3.3-4.8-6-8.7-7.4c-0.4-0.1-0.8-0.3-1.2-0.3c-7,0.9-13.5-0.5-19.8-3.4c-1.5-0.7-3-1.2-4.5-1.8
			c-0.2-0.1-0.6,0-0.9,0.1c-0.6,0-1.1,0-1.7,0.1c-2.5,0.4-4.8,1.2-7.1,2.2c-2.2,0.9-4.2,2.1-6,3.7c-2.2,2-3.9,4.4-5.2,7
			c-0.5,1-0.9,2-1.2,3c-0.6,1.6-2.1,1.9-3.8,1.3c-0.6-0.2-1-0.5-1-1.4c0.3-2.9,0.3-5.9,0.8-8.8c0.4-2.7,1.2-5.4,2.1-8
			c1-2.9,2.6-5.6,4.5-8.1c2.1-2.7,4.6-5.2,7.5-7c2.8-1.8,5.9-2.8,9.1-3.6c1-0.2,1.4-0.7,1.4-1.7c0.1-2.2,0.1-4.3,0.4-6.5
			c0.6-4.6,1-9.1,2.1-13.6s2.3-8.9,4.1-13.1c1.6-3.5,3.5-6.9,5.2-10.3c0.6-0.8,1.1-1.7,1.7-2.5c1-1.4,2-2.8,3.2-4
			c2.2-2.4,4.3-4.8,6.8-6.9c2.6-2.2,5.1-4.6,8.2-6.1c0.9-0.4,1.3-0.4,1.8,0.5c1.4,2.3,2.8,4.6,4,7c0.8,1.6,1.4,3.4,2.1,5.1
			c0.7,1.7,1.4,3.4,2.1,5.1c1.1,2.6,1.5,5.4,2,8.2C545.2,263.1,545.4,263.8,545.5,264.5z"/>
	</g>
</g>
<g id="Plan_1">
	<g id="Trace_fusee_3">
		<polygon class="st12" points="1066.4,102.5 130.2,1040.5 179.1,1068.4 1101.6,135 1110.1,92.7 		"/>
	</g>
	<g id="Fusee_3">
		<path class="st13" d="M1152.1,81.7c-3.1,7.3-7.2,14-12,20.2c-3,3.9-6.4,7.5-9.6,11.1c-1.4,1.7-3,3.3-4.6,4.8
			c-3.8,3.6-7.6,7.3-11.5,10.9c-1.8,1.7-3.5,3.3-5.3,4.9c-1.4,1.4-1.5,2.1-0.8,3.8c1.9,4.4,3,8.9,3.4,13.7
			c0.7,7.4-0.9,14.2-3.8,20.9c-2.6,6-6.3,11.4-10.9,16c-3.5,3.5-7.1,6.9-10.8,10.2c-1,0.9-2.4,1.5-3.8,2.5c-0.5-0.6-1-1.2-1.5-1.8
			c-2-2.4-2-3.2-0.3-5.9c3.1-4.7,5-9.8,5.8-15.3c0.3-2.6,0.7-5.3,0.5-8c-0.3-6.2-1.8-12-5.8-17c-0.5-0.4-0.8-1.1-1.4-1.4
			c-10-4.3-17.6-11.4-23.8-20.4c-1.4-2-3.1-4.1-4.7-6c-0.3-0.3-0.8-0.4-1.2-0.6c-0.8-0.4-1.4-0.8-2.3-1.2c-3.6-1.4-7.4-2.2-11.2-2.7
			c-3.7-0.5-7.3-0.4-10.9,0.3c-4.5,0.9-8.6,2.9-12.3,5.5c-1.4,0.9-2.7,2-4,3.1c-2,1.8-4.3,0.9-6.1-1.3c-0.7-0.8-1-1.5-0.3-2.6
			c2.7-3.7,5-7.8,7.9-11.4c2.7-3.3,5.8-6.4,9-9.3c3.6-3.2,7.8-5.7,12.3-7.5c5-2,10.1-3.4,15.5-3.6c5.1-0.3,10.1,0.8,14.9,2.3
			c1.5,0.5,2.5,0.1,3.2-1.2c1.8-2.9,3.6-5.8,5.5-8.5c4.3-5.8,8.4-11.7,13.4-17c4.9-5.3,9.9-10.3,15.7-14.6c4.8-3.6,10-6.6,15-9.9
			c1.4-0.7,2.8-1.4,4.2-2.1c2.5-1,4.8-2.2,7.4-3c4.7-1.5,9.5-3.1,14.4-4.1c5.2-1,10.3-2.2,15.7-1.9c1.5,0.1,2,0.5,2,2.1
			c0,4.2,0.2,8.5-0.1,12.7c-0.1,2.9-0.7,5.8-1.1,8.6c-0.4,2.9-0.8,5.8-1.2,8.6c-0.5,4.5-2.2,8.6-3.7,12.8
			C1152.9,79.5,1152.5,80.6,1152.1,81.7z"/>
	</g>
</g>
</svg>
