<?xml version="1.0" encoding="utf-8"?>
<!-- Generator: Adobe Illustrator 21.1.0, SVG Export Plug-In . SVG Version: 6.00 Build 0)  -->
<svg version="1.1" xmlns="http://www.w3.org/2000/svg" xmlns:xlink="http://www.w3.org/1999/xlink" x="0px" y="0px"
	 viewBox="0 0 360 360" style="enable-background:new 0 0 360 360;" xml:space="preserve">
<style type="text/css">
	.st0{enable-background:new    ;}
	.st1{fill-rule:evenodd;clip-rule:evenodd;fill:#85BCE6;}
	.st2{fill:#FFFFFF;}
	.st3{fill:#D55B73;}
</style>
<g id="logo" class="st0">
	<circle class="st1" cx="180.1" cy="177.7" r="74.8"/>
	<path class="st2" d="M166.5,176.1l-44.3,48.9c7.2,8.8,16.4,16,26.9,20.8l42.5-46.9L166.5,176.1z"/>
	<path class="st3" d="M252.5,116.4c-0.5,1.5-0.5,3.1-0.7,4.7c-0.7,6.5-1.8,13-4.2,19.1c-2.4,5.9-5.3,11.4-8.9,16.6
		c-2.3,3.2-4.7,6.3-7.3,9.2c-2.3,2.5-4.5,5.1-6.9,7.4c-3.1,2.9-6.1,5.8-9.2,8.7c-1.5,1.4-3,2.9-4.5,4.3c-0.8,0.7-1,1.6-0.5,2.6
		c1.6,3.8,2.6,7.6,3,11.7c0.5,5.4-0.5,10.5-2.4,15.5c-2.2,5.7-5.6,10.5-9.7,15c-2.8,3.1-5.9,5.9-9.1,8.5c-0.8,0.6-1.7,1.1-2.6,1.6
		c-0.3,0.2-0.5,0-0.7-0.2c-1-0.9-1.8-2-2.3-3.3c-0.2-0.5-0.1-0.8,0.2-1.2c2.9-4,4.7-8.5,5.6-13.3c0.5-3,0.8-6,0.4-9.1
		c-0.4-3.2-1.1-6.2-2.5-9c-0.6-1.4-1.5-2.6-2.4-3.8c-0.2-0.3-0.5-0.5-0.8-0.7c-9-3.8-15.7-10.3-20.8-18.4c-1.7-2.7-4-4.4-6.9-5.4
		c-3.3-1.1-6.6-1.6-10-2c-5-0.5-9.6,0.7-14,2.9c-2.4,1.2-4.6,2.7-6.6,4.5c-1.7,1.6-3.6,0.8-5.1-0.9c-0.7-0.7-0.8-1.4-0.1-2.5
		c2.6-4.2,5.4-8.2,8.7-11.9c3.8-4.3,8.1-7.7,13.2-10.2c4.1-2,8.5-3.3,13.2-3.8c4.8-0.5,9.4,0.3,14,1.7c1.6,0.5,2.3,0.2,3.1-1.2
		c2.5-4.2,5.4-8.2,8.3-12.1c3.1-4.2,6.6-8.2,10.3-12c5.4-5.5,11.4-10.4,18-14.5c4.7-2.9,9.5-5.4,14.8-7.2c5.3-1.8,10.7-3.1,16.2-3.8
		c1.2-0.2,2.3-0.5,3.5-0.7c1.8,0,3.5,0,5.3,0c0.6,0,0.7,0.1,0.7,0.7C252.5,108.1,252.5,112.2,252.5,116.4z"/>
</g>
<g id="Darwin">
</g>
<g id="Rockets">
</g>
</svg>
