<?xml version="1.0" encoding="utf-8"?>
<!-- Generator: Adobe Illustrator 21.0.2, SVG Export Plug-In . SVG Version: 6.00 Build 0)  -->
<svg version="1.1" id="Calque_1" xmlns="http://www.w3.org/2000/svg" xmlns:xlink="http://www.w3.org/1999/xlink" x="0px" y="0px"
	 viewBox="0 0 360 360" style="enable-background:new 0 0 360 360;" xml:space="preserve">
<style type="text/css">
	.st0{enable-background:new    ;}
	.st1{fill:#85BCE6;}
	.st2{fill:#FFFFFF;}
	.st3{fill:#D55B73;}
</style>
<g id="logo" class="st0">
	<circle class="st1" cx="179" cy="178.8" r="174"/>
	<path class="st2" d="M147.3,175.1l-103,113.7c16.7,20.5,38.1,37.2,62.6,48.4l98.8-109.1L147.3,175.1z"/>
	<path class="st3" d="M347.3,36.3c-1.2,3.5-1.2,7.2-1.6,10.9c-1.6,15.1-4.2,30.2-9.8,44.4c-5.6,13.7-12.3,26.5-20.7,38.6
		c-5.3,7.4-10.9,14.7-17,21.4c-5.3,5.8-10.5,11.9-16,17.2c-7.2,6.7-14.2,13.5-21.4,20.2c-3.5,3.3-7,6.7-10.5,10
		c-1.9,1.6-2.3,3.7-1.2,6c3.7,8.8,6,17.7,7,27.2c1.2,12.6-1.2,24.4-5.6,36c-5.1,13.3-13,24.4-22.6,34.9
		c-6.5,7.2-13.7,13.7-21.2,19.8c-1.9,1.4-4,2.6-6,3.7c-0.7,0.5-1.2,0-1.6-0.5c-2.3-2.1-4.2-4.7-5.3-7.7c-0.5-1.2-0.2-1.9,0.5-2.8
		c6.7-9.3,10.9-19.8,13-30.9c1.2-7,1.9-14,0.9-21.2c-0.9-7.4-2.6-14.4-5.8-20.9c-1.4-3.3-3.5-6-5.6-8.8c-0.5-0.7-1.2-1.2-1.9-1.6
		c-20.9-8.8-36.5-24-48.4-42.8c-4-6.3-9.3-10.2-16-12.6c-7.7-2.6-15.3-3.7-23.3-4.7c-11.6-1.2-22.3,1.6-32.6,6.7
		c-5.6,2.8-10.7,6.3-15.3,10.5c-4,3.7-8.4,1.9-11.9-2.1c-1.6-1.6-1.9-3.3-0.2-5.8c6-9.8,12.6-19.1,20.2-27.7
		c8.8-10,18.8-17.9,30.7-23.7c9.5-4.7,19.8-7.7,30.7-8.8c11.2-1.2,21.9,0.7,32.6,4c3.7,1.2,5.3,0.5,7.2-2.8
		c5.8-9.8,12.6-19.1,19.3-28.1c7.2-9.8,15.3-19.1,24-27.9c12.6-12.8,26.5-24.2,41.9-33.7c10.9-6.7,22.1-12.6,34.4-16.7
		c12.3-4.2,24.9-7.2,37.7-8.8c2.8-0.5,5.3-1.2,8.1-1.6c4.2,0,8.1,0,12.3,0c1.4,0,1.6,0.2,1.6,1.6C347.3,17,347.3,26.5,347.3,36.3z"
		/>
</g>
<g id="Darwin">
</g>
<g id="Rockets">
</g>
</svg>
