<?xml version="1.0" encoding="utf-8"?>
<!-- Generator: Adobe Illustrator 21.0.2, SVG Export Plug-In . SVG Version: 6.00 Build 0)  -->
<svg version="1.1" id="Calque_1" xmlns="http://www.w3.org/2000/svg" xmlns:xlink="http://www.w3.org/1999/xlink" x="0px" y="0px"
	 viewBox="0 0 318.7 174" style="enable-background:new 0 0 318.7 174;" xml:space="preserve">
<style type="text/css">
	.st0{enable-background:new    ;}
	.st1{fill:#85BCE6;}
	.st2{fill:#FFFFFF;}
	.st3{fill:#D55B73;}
	.st4{filter:url(#NewFilter);}
</style>
<filter  id="NewFilter">
	<feOffset  dx="0" dy="0" in="SourceAlpha" result="offOut"></feOffset>
	<feGaussianBlur  in="offOut" result="blurOut" stdDeviation="3"></feGaussianBlur>
	<feBlend  in="SourceGraphic" in2="blurOut" mode="normal"></feBlend>
</filter>
<g id="logo" class="st0">
	<circle class="st1" cx="142.8" cy="88.8" r="74.8"/>
	<path class="st2" d="M129.2,87.2l-44.3,48.9c7.2,8.8,16.4,16,26.9,20.8l42.5-46.9L129.2,87.2z"/>
	<path class="st3" d="M215.2,27.5c-0.5,1.5-0.5,3.1-0.7,4.7c-0.7,6.5-1.8,13-4.2,19.1c-2.4,5.9-5.3,11.4-8.9,16.6
		c-2.3,3.2-4.7,6.3-7.3,9.2c-2.3,2.5-4.5,5.1-6.9,7.4c-3.1,2.9-6.1,5.8-9.2,8.7c-1.5,1.4-3,2.9-4.5,4.3c-0.8,0.7-1,1.6-0.5,2.6
		c1.6,3.8,2.6,7.6,3,11.7c0.5,5.4-0.5,10.5-2.4,15.5c-2.2,5.7-5.6,10.5-9.7,15c-2.8,3.1-5.9,5.9-9.1,8.5c-0.8,0.6-1.7,1.1-2.6,1.6
		c-0.3,0.2-0.5,0-0.7-0.2c-1-0.9-1.8-2-2.3-3.3c-0.2-0.5-0.1-0.8,0.2-1.2c2.9-4,4.7-8.5,5.6-13.3c0.5-3,0.8-6,0.4-9.1
		c-0.4-3.2-1.1-6.2-2.5-9c-0.6-1.4-1.5-2.6-2.4-3.8c-0.2-0.3-0.5-0.5-0.8-0.7c-9-3.8-15.7-10.3-20.8-18.4c-1.7-2.7-4-4.4-6.9-5.4
		c-3.3-1.1-6.6-1.6-10-2c-5-0.5-9.6,0.7-14,2.9c-2.4,1.2-4.6,2.7-6.6,4.5c-1.7,1.6-3.6,0.8-5.1-0.9c-0.7-0.7-0.8-1.4-0.1-2.5
		c2.6-4.2,5.4-8.2,8.7-11.9c3.8-4.3,8.1-7.7,13.2-10.2c4.1-2,8.5-3.3,13.2-3.8c4.8-0.5,9.4,0.3,14,1.7c1.6,0.5,2.3,0.2,3.1-1.2
		c2.5-4.2,5.4-8.2,8.3-12.1c3.1-4.2,6.6-8.2,10.3-12c5.4-5.5,11.4-10.4,18-14.5c4.7-2.9,9.5-5.4,14.8-7.2c5.3-1.8,10.7-3.1,16.2-3.8
		c1.2-0.2,2.3-0.5,3.5-0.7c1.8,0,3.5,0,5.3,0c0.6,0,0.7,0.1,0.7,0.7C215.2,19.2,215.2,23.3,215.2,27.5z"/>
</g>
<g id="Darwin" class="st4">
	<g>
		<path class="st2" d="M16.5,76V33.3h12.6c2.9,0,5.5,0.5,7.8,1.4c2.4,1,4.4,2.3,6.1,4.1c1.7,1.8,3,3.9,3.9,6.4s1.4,5.3,1.4,8.4v2.1
			c0,3.1-0.5,5.9-1.4,8.4s-2.2,4.6-4,6.4c-1.7,1.8-3.8,3.1-6.2,4.1c-2.4,1-5.1,1.4-8,1.4L16.5,76L16.5,76z M23.9,39.3v30.8h4.8
			c2,0,3.8-0.3,5.3-1s2.8-1.6,3.8-2.8s1.8-2.7,2.3-4.5s0.8-3.8,0.8-6v-2.2c0-4.6-1-8.2-3-10.6c-2-2.4-4.9-3.7-8.8-3.7H23.9z"/>
		<path class="st2" d="M74.5,76c-0.2-0.4-0.4-0.8-0.5-1.3s-0.2-1.1-0.3-1.6c-0.5,0.5-1,0.9-1.6,1.4c-0.6,0.4-1.2,0.8-1.9,1.1
			c-0.7,0.3-1.4,0.6-2.3,0.8c-0.8,0.2-1.7,0.3-2.6,0.3c-1.6,0-3-0.2-4.4-0.7c-1.3-0.5-2.5-1.1-3.4-2c-0.9-0.8-1.7-1.9-2.2-3
			c-0.5-1.2-0.8-2.4-0.8-3.8c0-1.7,0.3-3.2,1-4.5c0.6-1.3,1.6-2.4,2.8-3.3s2.7-1.5,4.5-2c1.8-0.5,3.8-0.7,6.1-0.7h4.5v-2.1
			c0-1.6-0.5-3-1.4-3.9c-0.9-1-2.3-1.5-4.2-1.5c-0.8,0-1.6,0.1-2.3,0.3c-0.7,0.2-1.3,0.5-1.7,0.9c-0.5,0.4-0.8,0.8-1.1,1.4
			s-0.4,1.1-0.4,1.7h-7.1c0-1.2,0.3-2.5,0.9-3.6c0.6-1.2,1.5-2.2,2.6-3.1c1.1-0.9,2.5-1.6,4.1-2.2c1.6-0.5,3.4-0.8,5.4-0.8
			c1.8,0,3.4,0.2,4.9,0.7s2.8,1.1,3.9,2.1c1.1,0.9,1.9,2,2.5,3.4s0.9,2.9,0.9,4.8v14.1c0,2.9,0.4,5.1,1.2,6.8v0.5h-7.1V76z
			 M66.7,70.9c0.8,0,1.6-0.1,2.3-0.3c0.7-0.2,1.4-0.5,1.9-0.8c0.6-0.4,1.1-0.8,1.5-1.2c0.4-0.5,0.8-0.9,1-1.4v-6h-3.8
			c-2.6,0-4.6,0.5-5.9,1.4c-1.3,0.9-2,2.2-2,3.9c0,0.6,0.1,1.2,0.3,1.8c0.2,0.5,0.5,1,1,1.4c0.4,0.4,1,0.7,1.6,0.9
			C65.2,70.7,65.9,70.9,66.7,70.9z"/>
		<path class="st2" d="M105.2,50.8c-0.5-0.1-0.9-0.1-1.4-0.2c-0.5,0-1-0.1-1.5-0.1c-1.7,0-3.1,0.3-4.2,1c-1.1,0.7-1.9,1.6-2.4,2.8
			V76h-7.1V44.3h6.8l0.2,3.5c0.8-1.3,1.8-2.3,3-3s2.6-1.1,4.2-1.1c0.4,0,0.9,0,1.4,0.1s0.9,0.2,1.1,0.3L105.2,50.8z"/>
		<path class="st2" d="M138.7,66.2l5-21.9h6.9L142,76h-5.9l-6.8-21.8L122.6,76h-5.9L108,44.3h6.9L120,66l6.5-21.7h5.4L138.7,66.2z"
			/>
		<path class="st2" d="M156,36c0-1.1,0.3-2,1-2.7s1.7-1.1,3-1.1s2.3,0.4,3,1.1s1.1,1.6,1.1,2.7s-0.4,2-1.1,2.7
			c-0.7,0.7-1.7,1.1-3,1.1s-2.3-0.4-3-1.1C156.4,38,156,37.1,156,36z M163.6,76h-7.1V44.3h7.1V76z"/>
		<path class="st2" d="M178.6,44.3l0.2,3.7c1.1-1.3,2.5-2.4,4-3.1c1.6-0.7,3.3-1.1,5.2-1.1c1.5,0,2.9,0.2,4.1,0.6
			c1.2,0.4,2.3,1.1,3.2,2s1.6,2.2,2,3.7c0.5,1.5,0.7,3.3,0.7,5.5v20.5h-7.1V55.6c0-1.1-0.1-2-0.4-2.8c-0.2-0.8-0.6-1.4-1.1-1.8
			s-1-0.8-1.7-1s-1.5-0.3-2.4-0.3c-1.5,0-2.7,0.4-3.8,1.1s-1.9,1.7-2.6,2.8v22.6h-7.1V44.5h6.8V44.3z"/>
	</g>
</g>
<g id="Rockets" class="st4">
	<g>
		<path class="st2" d="M107,120h-8.3v16.4h-7.4V93.7h15c2.4,0,4.6,0.3,6.5,0.8c1.9,0.6,3.5,1.4,4.8,2.5s2.3,2.4,3,4s1,3.5,1,5.6
			c0,2.9-0.7,5.2-2.1,7.2s-3.3,3.4-5.8,4.4l9.6,17.8v0.4h-7.9L107,120z M98.8,114.1h7.6c1.3,0,2.5-0.2,3.5-0.5s1.8-0.8,2.5-1.5
			c0.7-0.6,1.2-1.4,1.5-2.2c0.3-0.9,0.5-1.8,0.5-2.8c0-1.1-0.2-2.1-0.5-3s-0.8-1.7-1.4-2.3s-1.5-1.1-2.5-1.5c-1-0.3-2.2-0.5-3.6-0.5
			h-7.6V114.1z"/>
		<path class="st2" d="M127.4,120.3c0-2.3,0.3-4.4,1-6.4c0.7-2,1.6-3.7,2.9-5.1s2.8-2.6,4.6-3.4s3.9-1.2,6.2-1.2s4.4,0.4,6.2,1.2
			s3.4,2,4.6,3.4s2.2,3.1,2.9,5.1s1,4.1,1,6.4v0.6c0,2.3-0.3,4.4-1,6.4s-1.6,3.7-2.9,5.1s-2.8,2.6-4.6,3.4s-3.9,1.2-6.2,1.2
			s-4.4-0.4-6.2-1.2s-3.4-1.9-4.6-3.4s-2.2-3.1-2.9-5.1c-0.7-2-1-4.1-1-6.4V120.3z M134.5,120.9c0,1.4,0.1,2.8,0.4,4
			s0.8,2.4,1.4,3.3c0.6,0.9,1.4,1.7,2.4,2.2s2.1,0.8,3.4,0.8c1.3,0,2.4-0.3,3.4-0.8s1.8-1.3,2.4-2.2s1.1-2.1,1.4-3.3s0.5-2.6,0.5-4
			v-0.6c0-1.4-0.2-2.7-0.5-4s-0.8-2.4-1.4-3.3s-1.4-1.7-2.4-2.3s-2.1-0.8-3.4-0.8c-1.3,0-2.5,0.3-3.4,0.8c-0.9,0.6-1.7,1.3-2.4,2.3
			c-0.6,0.9-1.1,2.1-1.4,3.3s-0.4,2.6-0.4,4V120.9z"/>
		<path class="st2" d="M176.5,131.4c0.9,0,1.7-0.1,2.4-0.4s1.4-0.6,2-1.1s1-1,1.3-1.7s0.5-1.4,0.6-2.2h6.7c-0.1,1.5-0.4,3-1.1,4.3
			s-1.6,2.5-2.8,3.5s-2.5,1.8-4.1,2.4s-3.2,0.9-5,0.9c-2.4,0-4.6-0.4-6.4-1.3s-3.3-2-4.5-3.4s-2.1-3.1-2.7-5.1s-0.9-4-0.9-6.2v-1
			c0-2.2,0.3-4.2,0.9-6.2s1.5-3.6,2.7-5.1s2.7-2.6,4.5-3.4s3.9-1.3,6.4-1.3c1.9,0,3.7,0.3,5.2,0.9s2.9,1.4,4,2.5s2,2.3,2.6,3.8
			s1,3.1,1,4.8h-6.7c0-0.8-0.2-1.6-0.5-2.4s-0.7-1.4-1.3-2s-1.2-1-1.9-1.3s-1.6-0.5-2.6-0.5c-1.4,0-2.6,0.3-3.6,0.9
			s-1.7,1.4-2.2,2.3s-0.9,2.1-1.1,3.3s-0.3,2.5-0.3,3.7v1c0,1.3,0.1,2.5,0.3,3.8s0.6,2.3,1.1,3.3s1.3,1.7,2.2,2.3
			S175,131.4,176.5,131.4z"/>
		<path class="st2" d="M205.8,122.9l-3.2,3.3v10.3h-7.1v-45h7.1v26l2.2-2.8l8.8-9.9h8.6L210.4,118l13,18.5h-8.2L205.8,122.9z"/>
		<path class="st2" d="M240.8,137c-2.3,0-4.5-0.4-6.3-1.2s-3.5-1.9-4.8-3.2s-2.3-3-3-4.9s-1.1-3.9-1.1-6.1v-1.2
			c0-2.5,0.4-4.8,1.1-6.8s1.8-3.7,3-5.2s2.8-2.5,4.6-3.3s3.6-1.2,5.6-1.2c2.3,0,4.3,0.4,6,1.2s3.1,1.9,4.2,3.2s1.9,3,2.5,5
			s0.8,4,0.8,6.3v3h-20.7c0.1,1.2,0.4,2.4,0.8,3.4s1,1.9,1.7,2.7s1.6,1.3,2.6,1.8s2.1,0.6,3.4,0.6c1.8,0,3.3-0.4,4.6-1.1
			s2.4-1.7,3.4-2.9l3.8,3.7c-0.5,0.8-1.1,1.5-1.9,2.2s-1.6,1.3-2.6,1.9s-2.1,1-3.4,1.3S242.3,137,240.8,137z M239.9,109.9
			c-2,0-3.5,0.7-4.7,2.1s-2,3.3-2.3,5.7h13.6v-0.6c-0.1-0.9-0.2-1.8-0.5-2.7s-0.6-1.6-1.1-2.3s-1.2-1.2-2-1.6
			S241.1,109.9,239.9,109.9z"/>
		<path class="st2" d="M268.5,97.1v7.7h5.6v5.3h-5.6v17.7c0,0.7,0.1,1.3,0.2,1.8s0.4,0.8,0.7,1s0.6,0.4,1,0.5s0.8,0.1,1.3,0.1
			s1,0,1.4-0.1s0.8-0.1,1.1-0.2v5.5c-0.6,0.2-1.2,0.3-2,0.5s-1.7,0.2-2.7,0.2c-1.2,0-2.3-0.2-3.3-0.5s-1.9-0.8-2.6-1.5
			s-1.3-1.6-1.7-2.8s-0.6-2.5-0.6-4.2V110h-5.2v-5.3h5.2v-7.6H268.5z"/>
		<path class="st2" d="M297.9,127.8c0-0.5-0.1-1-0.2-1.4s-0.5-0.8-1-1.2s-1.2-0.7-2.1-1.1s-2-0.6-3.5-0.9c-1.7-0.4-3.2-0.8-4.6-1.3
			s-2.6-1.2-3.6-1.9s-1.8-1.6-2.3-2.7s-0.8-2.2-0.8-3.5s0.3-2.5,0.8-3.7s1.4-2.2,2.4-3.1s2.4-1.6,3.9-2.1s3.2-0.8,5.1-0.8
			c2,0,3.7,0.3,5.3,0.8s2.9,1.2,4,2.1s1.9,2,2.5,3.2s0.9,2.6,0.9,4h-7.1c0-0.6-0.1-1.2-0.4-1.8s-0.6-1.1-1.1-1.5s-1-0.8-1.7-1.1
			s-1.5-0.4-2.4-0.4s-1.7,0.1-2.3,0.3s-1.2,0.5-1.7,0.9s-0.8,0.8-1,1.3s-0.3,1-0.3,1.5s0.1,1,0.3,1.4s0.5,0.8,1,1.1s1.2,0.6,2,0.9
			s1.9,0.6,3.2,0.8c1.8,0.4,3.5,0.8,4.9,1.4s2.7,1.2,3.7,1.9s1.8,1.7,2.3,2.7s0.8,2.3,0.8,3.7s-0.3,2.7-0.9,3.9s-1.5,2.2-2.6,3
			s-2.5,1.5-4.1,2s-3.3,0.7-5.3,0.7c-2.2,0-4.1-0.3-5.8-0.9s-3.1-1.4-4.2-2.4s-2-2.1-2.6-3.4s-0.9-2.5-0.9-3.9h6.9
			c0.1,1,0.3,1.8,0.7,2.5s0.9,1.2,1.5,1.6s1.3,0.7,2.1,0.9s1.5,0.3,2.3,0.3c1.9,0,3.3-0.4,4.3-1.1S297.9,129,297.9,127.8z"/>
	</g>
</g>
</svg>
