<?xml version="1.0" encoding="utf-8"?>
<!-- Generator: Adobe Illustrator 21.1.0, SVG Export Plug-In . SVG Version: 6.00 Build 0)  -->
<svg version="1.1" xmlns="http://www.w3.org/2000/svg" xmlns:xlink="http://www.w3.org/1999/xlink" x="0px" y="0px"
	 viewBox="0 0 360 360" style="enable-background:new 0 0 360 360;" xml:space="preserve">
<style type="text/css">
	.st0{enable-background:new    ;}
	.st1{fill-rule:evenodd;clip-rule:evenodd;fill:#85BCE6;}
	.st2{fill:#FFFFFF;}
	.st3{fill:#D55B73;}
</style>
<g id="logo" class="st0">
	<circle class="st1" cx="180.1" cy="177.7" r="74.8"/>
	<path class="st2" d="M166.5,176.1l-44.3,48.9c7.2,8.8,16.4,16,26.9,20.8l42.5-46.9L166.5,176.1z"/>
	<path class="st3" d="M252.5,116.4c-0.5,1.5-0.5,3.1-0.7,4.7c-0.7,6.5-1.8,13-4.2,19.1c-2.4,5.9-5.3,11.4-8.9,16.6
		c-2.3,3.2-4.7,6.3-7.3,9.2c-2.3,2.5-4.5,5.1-6.9,7.4c-3.1,2.9-6.1,5.8-9.2,8.7c-1.5,1.4-3,2.9-4.5,4.3c-0.8,0.7-1,1.6-0.5,2.6
		c1.6,3.8,2.6,7.6,3,11.7c0.5,5.4-0.5,10.5-2.4,15.5c-2.2,5.7-5.6,10.5-9.7,15c-2.8,3.1-5.9,5.9-9.1,8.5c-0.8,0.6-1.7,1.1-2.6,1.6
		c-0.3,0.2-0.5,0-0.7-0.2c-1-0.9-1.8-2-2.3-3.3c-0.2-0.5-0.1-0.8,0.2-1.2c2.9-4,4.7-8.5,5.6-13.3c0.5-3,0.8-6,0.4-9.1
		c-0.4-3.2-1.1-6.2-2.5-9c-0.6-1.4-1.5-2.6-2.4-3.8c-0.2-0.3-0.5-0.5-0.8-0.7c-9-3.8-15.7-10.3-20.8-18.4c-1.7-2.7-4-4.4-6.9-5.4
		c-3.3-1.1-6.6-1.6-10-2c-5-0.5-9.6,0.7-14,2.9c-2.4,1.2-4.6,2.7-6.6,4.5c-1.7,1.6-3.6,0.8-5.1-0.9c-0.7-0.7-0.8-1.4-0.1-2.5
		c2.6-4.2,5.4-8.2,8.7-11.9c3.8-4.3,8.1-7.7,13.2-10.2c4.1-2,8.5-3.3,13.2-3.8c4.8-0.5,9.4,0.3,14,1.7c1.6,0.5,2.3,0.2,3.1-1.2
		c2.5-4.2,5.4-8.2,8.3-12.1c3.1-4.2,6.6-8.2,10.3-12c5.4-5.5,11.4-10.4,18-14.5c4.7-2.9,9.5-5.4,14.8-7.2c5.3-1.8,10.7-3.1,16.2-3.8
		c1.2-0.2,2.3-0.5,3.5-0.7c1.8,0,3.5,0,5.3,0c0.6,0,0.7,0.1,0.7,0.7C252.5,108.1,252.5,112.2,252.5,116.4z"/>
</g>
<g id="Darwin">
	<g>
		<path class="st2" d="M53.8,164.9v-42.7h12.6c2.9,0,5.5,0.5,7.8,1.4c2.4,1,4.4,2.3,6.1,4.1c1.7,1.8,3,3.9,3.9,6.4
			c0.9,2.5,1.4,5.3,1.4,8.4v2.1c0,3.1-0.5,5.9-1.4,8.4c-0.9,2.5-2.2,4.6-4,6.4c-1.7,1.8-3.8,3.1-6.2,4.1c-2.4,1-5.1,1.4-8,1.4H53.8z
			 M61.2,128.2V159H66c2,0,3.8-0.3,5.3-1c1.5-0.7,2.8-1.6,3.8-2.8c1-1.2,1.8-2.7,2.3-4.5c0.5-1.8,0.8-3.8,0.8-6v-2.2
			c0-4.6-1-8.2-3-10.6c-2-2.4-4.9-3.7-8.8-3.7H61.2z"/>
		<path class="st2" d="M111.8,164.9c-0.2-0.4-0.4-0.8-0.5-1.3c-0.1-0.5-0.2-1.1-0.3-1.6c-0.5,0.5-1,0.9-1.6,1.4
			c-0.6,0.4-1.2,0.8-1.9,1.1c-0.7,0.3-1.4,0.6-2.3,0.8c-0.8,0.2-1.7,0.3-2.6,0.3c-1.6,0-3-0.2-4.4-0.7c-1.3-0.5-2.5-1.1-3.4-2
			c-0.9-0.8-1.7-1.9-2.2-3c-0.5-1.2-0.8-2.4-0.8-3.8c0-1.7,0.3-3.2,1-4.5c0.6-1.3,1.6-2.4,2.8-3.3s2.7-1.5,4.5-2
			c1.8-0.5,3.8-0.7,6.1-0.7h4.5v-2.1c0-1.6-0.5-3-1.4-3.9c-0.9-1-2.3-1.5-4.2-1.5c-0.8,0-1.6,0.1-2.3,0.3c-0.7,0.2-1.3,0.5-1.7,0.9
			c-0.5,0.4-0.8,0.8-1.1,1.4s-0.4,1.1-0.4,1.7h-7.1c0-1.2,0.3-2.5,0.9-3.6c0.6-1.2,1.5-2.2,2.6-3.1c1.1-0.9,2.5-1.6,4.1-2.2
			c1.6-0.5,3.4-0.8,5.4-0.8c1.8,0,3.4,0.2,4.9,0.7c1.5,0.5,2.8,1.1,3.9,2.1c1.1,0.9,1.9,2,2.5,3.4c0.6,1.4,0.9,2.9,0.9,4.8v14.1
			c0,2.9,0.4,5.1,1.2,6.8v0.5H111.8z M104,159.8c0.8,0,1.6-0.1,2.3-0.3c0.7-0.2,1.4-0.5,1.9-0.8c0.6-0.4,1.1-0.8,1.5-1.2
			c0.4-0.5,0.8-0.9,1-1.4v-6h-3.8c-2.6,0-4.6,0.5-5.9,1.4c-1.3,0.9-2,2.2-2,3.9c0,0.6,0.1,1.2,0.3,1.8c0.2,0.5,0.5,1,1,1.4
			c0.4,0.4,1,0.7,1.6,0.9C102.5,159.6,103.2,159.8,104,159.8z"/>
		<path class="st2" d="M142.5,139.7c-0.5-0.1-0.9-0.1-1.4-0.2c-0.5,0-1-0.1-1.5-0.1c-1.7,0-3.1,0.3-4.2,1c-1.1,0.7-1.9,1.6-2.4,2.8
			v21.7h-7.1v-31.7h6.8l0.2,3.5c0.8-1.3,1.8-2.3,3-3c1.2-0.7,2.6-1.1,4.2-1.1c0.4,0,0.9,0,1.4,0.1c0.5,0.1,0.9,0.2,1.1,0.3
			L142.5,139.7z"/>
		<path class="st2" d="M176,155.1l5-21.9h6.9l-8.6,31.7h-5.9l-6.8-21.8l-6.7,21.8h-5.9l-8.7-31.7h6.9l5.1,21.7l6.5-21.7h5.4
			L176,155.1z"/>
		<path class="st2" d="M193.3,124.9c0-1.1,0.3-2,1-2.7c0.7-0.7,1.7-1.1,3-1.1s2.3,0.4,3,1.1c0.7,0.7,1.1,1.6,1.1,2.7
			c0,1.1-0.4,2-1.1,2.7c-0.7,0.7-1.7,1.1-3,1.1s-2.3-0.4-3-1.1C193.7,126.9,193.3,126,193.3,124.9z M200.9,164.9h-7.1v-31.7h7.1
			V164.9z"/>
		<path class="st2" d="M215.9,133.2l0.2,3.7c1.1-1.3,2.5-2.4,4-3.1c1.6-0.7,3.3-1.1,5.2-1.1c1.5,0,2.9,0.2,4.1,0.6
			c1.2,0.4,2.3,1.1,3.2,2s1.6,2.2,2,3.7c0.5,1.5,0.7,3.3,0.7,5.5v20.5h-7.1v-20.5c0-1.1-0.1-2-0.4-2.8c-0.2-0.8-0.6-1.4-1.1-1.8
			s-1-0.8-1.7-1s-1.5-0.3-2.4-0.3c-1.5,0-2.7,0.4-3.8,1.1s-1.9,1.7-2.6,2.8v22.6h-7.1v-31.7H215.9z"/>
	</g>
</g>
<g id="Rockets">
	<g>
		<path class="st2" d="M144.3,208.9h-8.3v16.4h-7.4v-42.7h15c2.4,0,4.6,0.3,6.5,0.8c1.9,0.6,3.5,1.4,4.8,2.5s2.3,2.4,3,4
			c0.7,1.6,1,3.5,1,5.6c0,2.9-0.7,5.2-2.1,7.2s-3.3,3.4-5.8,4.4l9.6,17.8v0.4h-7.9L144.3,208.9z M136.1,203h7.6
			c1.3,0,2.5-0.2,3.5-0.5s1.8-0.8,2.5-1.5c0.7-0.6,1.2-1.4,1.5-2.2c0.3-0.9,0.5-1.8,0.5-2.8c0-1.1-0.2-2.1-0.5-3
			c-0.3-0.9-0.8-1.7-1.4-2.3s-1.5-1.1-2.5-1.5c-1-0.3-2.2-0.5-3.6-0.5h-7.6V203z"/>
		<path class="st2" d="M164.7,209.2c0-2.3,0.3-4.4,1-6.4s1.6-3.7,2.9-5.1s2.8-2.6,4.6-3.4s3.9-1.2,6.2-1.2c2.3,0,4.4,0.4,6.2,1.2
			s3.4,2,4.6,3.4s2.2,3.1,2.9,5.1s1,4.1,1,6.4v0.6c0,2.3-0.3,4.4-1,6.4s-1.6,3.7-2.9,5.1s-2.8,2.6-4.6,3.4s-3.9,1.2-6.2,1.2
			c-2.3,0-4.4-0.4-6.2-1.2c-1.8-0.8-3.4-1.9-4.6-3.4s-2.2-3.1-2.9-5.1s-1-4.1-1-6.4V209.2z M171.8,209.8c0,1.4,0.1,2.8,0.4,4
			s0.8,2.4,1.4,3.3c0.6,0.9,1.4,1.7,2.4,2.2s2.1,0.8,3.4,0.8c1.3,0,2.4-0.3,3.4-0.8s1.8-1.3,2.4-2.2s1.1-2.1,1.4-3.3s0.5-2.6,0.5-4
			v-0.6c0-1.4-0.2-2.7-0.5-4s-0.8-2.4-1.4-3.3s-1.4-1.7-2.4-2.3s-2.1-0.8-3.4-0.8c-1.3,0-2.5,0.3-3.4,0.8c-0.9,0.6-1.7,1.3-2.4,2.3
			c-0.6,0.9-1.1,2.1-1.4,3.3s-0.4,2.6-0.4,4V209.8z"/>
		<path class="st2" d="M213.8,220.3c0.9,0,1.7-0.1,2.4-0.4s1.4-0.6,2-1.1s1-1,1.3-1.7s0.5-1.4,0.6-2.2h6.7c-0.1,1.5-0.4,3-1.1,4.3
			s-1.6,2.5-2.8,3.5s-2.5,1.8-4.1,2.4s-3.2,0.9-5,0.9c-2.4,0-4.6-0.4-6.4-1.3s-3.3-2-4.5-3.4s-2.1-3.1-2.7-5.1s-0.9-4-0.9-6.2v-1
			c0-2.2,0.3-4.2,0.9-6.2s1.5-3.6,2.7-5.1s2.7-2.6,4.5-3.4s3.9-1.3,6.4-1.3c1.9,0,3.7,0.3,5.2,0.9s2.9,1.4,4,2.5s2,2.3,2.6,3.8
			s1,3.1,1,4.8h-6.7c0-0.8-0.2-1.6-0.5-2.4s-0.7-1.4-1.3-2s-1.2-1-1.9-1.3s-1.6-0.5-2.6-0.5c-1.4,0-2.6,0.3-3.6,0.9
			s-1.7,1.4-2.2,2.3s-0.9,2.1-1.1,3.3s-0.3,2.5-0.3,3.7v1c0,1.3,0.1,2.5,0.3,3.8s0.6,2.3,1.1,3.3s1.3,1.7,2.2,2.3
			S212.3,220.3,213.8,220.3z"/>
		<path class="st2" d="M243.1,211.8l-3.2,3.3v10.3h-7.1v-45h7.1v26l2.2-2.8l8.8-9.9h8.6l-11.8,13.2l13,18.5h-8.2L243.1,211.8z"/>
		<path class="st2" d="M278.1,225.9c-2.3,0-4.5-0.4-6.3-1.2s-3.5-1.9-4.8-3.2s-2.3-3-3-4.9s-1.1-3.9-1.1-6.1v-1.2
			c0-2.5,0.4-4.8,1.1-6.8s1.8-3.7,3-5.2s2.8-2.5,4.6-3.3s3.6-1.2,5.6-1.2c2.3,0,4.3,0.4,6,1.2s3.1,1.9,4.2,3.2s1.9,3,2.5,5
			s0.8,4,0.8,6.3v3h-20.7c0.1,1.2,0.4,2.4,0.8,3.4s1,1.9,1.7,2.7s1.6,1.3,2.6,1.8s2.1,0.6,3.4,0.6c1.8,0,3.3-0.4,4.6-1.1
			s2.4-1.7,3.4-2.9l3.8,3.7c-0.5,0.8-1.1,1.5-1.9,2.2s-1.6,1.3-2.6,1.9s-2.1,1-3.4,1.3S279.6,225.9,278.1,225.9z M277.2,198.8
			c-2,0-3.5,0.7-4.7,2.1s-2,3.3-2.3,5.7h13.6V206c-0.1-0.9-0.2-1.8-0.5-2.7s-0.6-1.6-1.1-2.3s-1.2-1.2-2-1.6
			S278.4,198.8,277.2,198.8z"/>
		<path class="st2" d="M305.8,186v7.7h5.6v5.3h-5.6v17.7c0,0.7,0.1,1.3,0.2,1.8s0.4,0.8,0.7,1s0.6,0.4,1,0.5s0.8,0.1,1.3,0.1
			s1,0,1.4-0.1s0.8-0.1,1.1-0.2v5.5c-0.6,0.2-1.2,0.3-2,0.5s-1.7,0.2-2.7,0.2c-1.2,0-2.3-0.2-3.3-0.5s-1.9-0.8-2.6-1.5
			s-1.3-1.6-1.7-2.8s-0.6-2.5-0.6-4.2v-18.1h-5.2v-5.3h5.2V186H305.8z"/>
		<path class="st2" d="M335.2,216.7c0-0.5-0.1-1-0.2-1.4s-0.5-0.8-1-1.2s-1.2-0.7-2.1-1.1s-2-0.6-3.5-0.9c-1.7-0.4-3.2-0.8-4.6-1.3
			s-2.6-1.2-3.6-1.9s-1.8-1.6-2.3-2.7s-0.8-2.2-0.8-3.5c0-1.3,0.3-2.5,0.8-3.7s1.4-2.2,2.4-3.1s2.4-1.6,3.9-2.1s3.2-0.8,5.1-0.8
			c2,0,3.7,0.3,5.3,0.8s2.9,1.2,4,2.1s1.9,2,2.5,3.2s0.9,2.6,0.9,4h-7.1c0-0.6-0.1-1.2-0.4-1.8s-0.6-1.1-1.1-1.5s-1-0.8-1.7-1.1
			s-1.5-0.4-2.4-0.4c-0.9,0-1.7,0.1-2.3,0.3s-1.2,0.5-1.7,0.9s-0.8,0.8-1,1.3s-0.3,1-0.3,1.5s0.1,1,0.3,1.4s0.5,0.8,1,1.1
			s1.2,0.6,2,0.9s1.9,0.6,3.2,0.8c1.8,0.4,3.5,0.8,4.9,1.4s2.7,1.2,3.7,1.9s1.8,1.7,2.3,2.7s0.8,2.3,0.8,3.7c0,1.4-0.3,2.7-0.9,3.9
			s-1.5,2.2-2.6,3s-2.5,1.5-4.1,2s-3.3,0.7-5.3,0.7c-2.2,0-4.1-0.3-5.8-0.9s-3.1-1.4-4.2-2.4s-2-2.1-2.6-3.4s-0.9-2.5-0.9-3.9h6.9
			c0.1,1,0.3,1.8,0.7,2.5s0.9,1.2,1.5,1.6s1.3,0.7,2.1,0.9s1.5,0.3,2.3,0.3c1.9,0,3.3-0.4,4.3-1.1S335.2,217.9,335.2,216.7z"/>
	</g>
</g>
</svg>
