<?xml version="1.0" standalone="no"?>
<!DOCTYPE svg PUBLIC "-//W3C//DTD SVG 20010904//EN"
 "http://www.w3.org/TR/2001/REC-SVG-20010904/DTD/svg10.dtd">
<svg version="1.0" xmlns="http://www.w3.org/2000/svg"
 width="387.000000pt" height="387.000000pt" viewBox="0 0 387.000000 387.000000"
 preserveAspectRatio="xMidYMid meet">
<metadata>
Created by potrace 1.11, written by Peter Selinger 2001-2013
</metadata>
<g transform="translate(0.000000,387.000000) scale(0.100000,-0.100000)"
fill="#000000" stroke="none">
<path d="M3435 3740 c-530 -75 -938 -298 -1327 -723 -61 -67 -118 -133 -127
-147 -9 -14 -43 -61 -77 -105 -33 -44 -91 -126 -128 -183 -37 -57 -73 -105
-81 -108 -7 -3 -60 6 -118 20 -132 33 -250 34 -373 6 -297 -69 -516 -239 -722
-559 -64 -98 -65 -107 -25 -143 42 -38 73 -33 151 26 89 68 195 120 287 142
126 29 318 8 465 -52 82 -33 82 -32 145 -129 119 -181 277 -328 441 -411 78
-40 105 -67 147 -150 44 -87 60 -167 60 -299 0 -170 -36 -302 -120 -434 -39
-61 -38 -79 5 -130 l28 -34 56 37 c79 52 265 238 338 338 76 103 142 235 176
353 22 75 26 111 27 215 0 132 -11 193 -59 322 -19 50 -23 72 -15 86 5 10 58
63 118 117 414 378 656 676 765 945 82 202 110 296 127 430 28 220 31 265 29
415 l-3 160 -65 1 c-36 1 -92 -2 -125 -6z"/>
</g>
</svg>
